<svg width="136" height="32" viewBox="0 0 136 32" fill="none" xmlns="http://www.w3.org/2000/svg">
<path d="M68.6821 17.0726C65.9411 17.0726 63.702 19.1092 63.702 21.9192C63.702 24.7065 65.9411 26.7645 68.6821 26.7645C71.4289 26.7645 73.6681 24.7065 73.6681 21.9192C73.6681 19.1092 71.4289 17.0726 68.6821 17.0726ZM68.6821 24.856C67.1781 24.856 65.8842 23.644 65.8842 21.9192C65.8842 20.1717 67.1781 18.9811 68.6821 18.9811C70.1861 18.9811 71.4858 20.1717 71.4858 21.9192C71.4858 23.644 70.1861 24.856 68.6821 24.856ZM57.816 17.0726C55.0692 17.0726 52.8358 19.1092 52.8358 21.9192C52.8358 24.7065 55.0692 26.7645 57.816 26.7645C60.5613 26.7645 62.7961 24.7065 62.7961 21.9192C62.7961 19.1092 60.5613 17.0726 57.816 17.0726ZM57.816 24.856C56.3105 24.856 55.0123 23.644 55.0123 21.9192C55.0123 20.1717 56.3105 18.9811 57.816 18.9811C59.3199 18.9811 60.6138 20.1717 60.6138 21.9192C60.6138 23.644 59.3199 24.856 57.816 24.856ZM44.8857 18.5581V20.6175H49.9227C49.7754 21.7683 49.3815 22.6143 48.7776 23.2039C48.0424 23.916 46.8973 24.7065 44.8857 24.7065C41.7859 24.7065 39.3585 22.2639 39.3585 19.2374C39.3585 16.2109 41.7859 13.7684 44.8857 13.7684C46.5618 13.7684 47.7813 14.4079 48.6813 15.2368L50.1678 13.7855C48.9089 12.6119 47.2343 11.7104 44.8857 11.7104C40.6349 11.7104 37.0625 15.0872 37.0625 19.2374C37.0625 23.3876 40.6349 26.7645 44.8857 26.7645C47.1832 26.7645 48.9089 26.0296 50.2655 24.6509C51.6557 23.2936 52.089 21.3852 52.089 19.8441C52.089 19.3656 52.0481 18.9255 51.9752 18.5581H44.8857ZM97.7591 20.1546C97.3492 19.0708 96.0845 17.0726 93.5084 17.0726C90.9556 17.0726 88.8302 19.0366 88.8302 21.9192C88.8302 24.6338 90.9337 26.7645 93.7534 26.7645C96.0334 26.7645 97.3492 25.4072 97.8904 24.6167L96.1983 23.5158C95.6337 24.3219 94.865 24.856 93.7534 24.856C92.6492 24.856 91.8571 24.3618 91.3494 23.3876L97.9881 20.7058L97.7591 20.1546ZM90.9906 21.7683C90.9337 19.8997 92.477 18.9426 93.5828 18.9426C94.4492 18.9426 95.1845 19.3656 95.4295 19.9709L90.9906 21.7683ZM85.5947 26.4696H87.777V12.2274H85.5947V26.4696ZM82.0208 18.1522H81.9479C81.4577 17.5853 80.5227 17.0726 79.3382 17.0726C76.8525 17.0726 74.5798 19.2032 74.5798 21.9349C74.5798 24.6509 76.8525 26.7645 79.3382 26.7645C80.5227 26.7645 81.4577 26.2475 81.9479 25.6635H82.0208V26.3586C82.0208 28.2115 81.007 29.207 79.3717 29.207C78.0384 29.207 77.2113 28.267 76.87 27.4766L74.9722 28.2499C75.5192 29.5346 76.9677 31.1155 79.3717 31.1155C81.9304 31.1155 84.0893 29.6457 84.0893 26.0694V17.3674H82.0208V18.1522ZM79.5249 24.856C78.0209 24.856 76.762 23.6269 76.762 21.9349C76.762 20.2273 78.0209 18.9811 79.5249 18.9811C81.007 18.9811 82.1754 20.2273 82.1754 21.9349C82.1754 23.6269 81.007 24.856 79.5249 24.856ZM107.976 12.2274H102.757V26.4696H104.933V21.0733H107.976C110.393 21.0733 112.764 19.3656 112.764 16.6496C112.764 13.935 110.387 12.2274 107.976 12.2274ZM108.033 19.0922H104.933V14.2085H108.033C109.658 14.2085 110.586 15.5259 110.586 16.6496C110.586 17.752 109.658 19.0922 108.033 19.0922ZM121.487 17.0455C119.914 17.0455 118.279 17.7235 117.607 19.226L119.538 20.0165C119.954 19.226 120.718 18.9697 121.526 18.9697C122.655 18.9697 123.801 19.6319 123.818 20.8012V20.9508C123.424 20.7286 122.581 20.3996 121.544 20.3996C119.464 20.3996 117.344 21.5176 117.344 23.6041C117.344 25.5126 119.048 26.7417 120.963 26.7417C122.428 26.7417 123.236 26.0965 123.744 25.3459H123.818V26.4469H125.92V20.9835C125.92 18.4584 123.989 17.0455 121.487 17.0455ZM121.224 24.8503C120.513 24.8503 119.521 24.5056 119.521 23.644C119.521 22.5416 120.758 22.1186 121.828 22.1186C122.787 22.1186 123.236 22.3251 123.818 22.5972C123.647 23.916 122.485 24.8503 121.224 24.8503ZM133.578 17.3574L131.077 23.5315H131.002L128.416 17.3574H126.069L129.955 25.9854L127.738 30.7865H130.012L136 17.3574H133.578ZM113.96 26.4696H116.142V12.2274H113.96V26.4696Z" fill="white"/>
<path d="M52.0778 3.95931C52.0778 4.91069 51.7861 5.67265 51.2113 6.24092C50.5505 6.91458 49.6898 7.25354 48.6352 7.25354C47.6272 7.25354 46.7665 6.90888 46.0605 6.22952C45.353 5.5402 45 4.69421 45 3.68158C45 2.66896 45.353 1.82297 46.0605 1.13934C46.7665 0.454283 47.6272 0.109619 48.6352 0.109619C49.137 0.109619 49.6154 0.210739 50.072 0.398737C50.5272 0.58816 50.8977 0.84452 51.1661 1.1607L50.5563 1.76172C50.0881 1.22194 49.4506 0.955611 48.6352 0.955611C47.9 0.955611 47.2625 1.20627 46.7213 1.71187C46.186 2.2189 45.9175 2.87547 45.9175 3.68158C45.9175 4.48769 46.186 5.14996 46.7213 5.65698C47.2625 6.15689 47.9 6.41325 48.6352 6.41325C49.4156 6.41325 50.072 6.15689 50.5899 5.65129C50.9312 5.31659 51.1252 4.85514 51.1763 4.26551H48.6352V3.44231H52.0253C52.0661 3.62034 52.0778 3.79267 52.0778 3.95931Z" fill="white"/>
<path d="M57.4562 1.10515H54.2717V3.26997H57.1425V4.09317H54.2717V6.258H57.4562V7.09687H53.3702V0.266278H57.4562V1.10515Z" fill="white"/>
<path d="M61.2518 7.09687H60.3503V1.10515H58.397V0.266278H63.2065V1.10515H61.2518V7.09687Z" fill="white"/>
<path d="M66.687 7.09687V0.266278H67.5871V7.09687H66.687Z" fill="white"/>
<path d="M71.5767 7.09687H70.6825V1.10515H68.722V0.266278H73.5373V1.10515H71.5767V7.09687Z" fill="white"/>
<path d="M82.6427 6.21813C81.9528 6.90888 81.0979 7.25354 80.0783 7.25354C79.0528 7.25354 78.198 6.90888 77.508 6.21813C76.8195 5.5288 76.4767 4.68281 76.4767 3.68158C76.4767 2.68035 76.8195 1.83436 77.508 1.14503C78.198 0.454283 79.0528 0.109619 80.0783 0.109619C81.0921 0.109619 81.9469 0.454282 82.6369 1.15073C83.3313 1.84575 83.6741 2.68605 83.6741 3.68158C83.6741 4.68281 83.3313 5.5288 82.6427 6.21813ZM78.1746 5.64559C78.6939 6.15689 79.3256 6.41325 80.0783 6.41325C80.8252 6.41325 81.4626 6.15689 81.9761 5.64559C82.4939 5.13429 82.7565 4.47773 82.7565 3.68158C82.7565 2.88544 82.4939 2.22887 81.9761 1.71757C81.4626 1.20628 80.8252 0.949913 80.0783 0.949913C79.3256 0.949913 78.6939 1.20628 78.1746 1.71757C77.6568 2.22887 77.3942 2.88544 77.3942 3.68158C77.3942 4.47773 77.6568 5.13429 78.1746 5.64559Z" fill="white"/>
<path d="M84.9388 7.09687V0.266278H86.0328L89.4346 5.57865H89.474L89.4346 4.26551V0.266278H90.3347V7.09687H89.3952L85.833 1.52245H85.7936L85.833 2.84128V7.09687H84.9388Z" fill="white"/>
<path d="M0.609783 0.877589C0.223532 1.22795 0 1.77343 0 2.47984V27.6773C0 28.3837 0.223532 28.9292 0.609783 29.2795L0.705114 29.3564L17 15.2424V14.9091L0.705114 0.794985L0.609783 0.877589Z" fill="url(#paint0_linear_4632_11283)"/>
<path d="M19.9022 19.9492L15.0869 15.2421V14.9089L19.908 10.2018L20.016 10.263L25.7255 13.4348C27.3549 14.3349 27.3549 15.8161 25.7255 16.7219L20.016 19.888L19.9022 19.9492Z" fill="url(#paint1_linear_4632_11283)"/>
<path d="M20.0157 19.888L15.0866 15.0756L0.540039 29.2794C1.08123 29.8348 1.96377 29.9018 2.96738 29.3463L20.0157 19.888Z" fill="url(#paint2_linear_4632_11283)"/>
<path d="M20.0157 10.2632L2.96738 0.804926C1.96377 0.255174 1.08123 0.322111 0.540039 0.87756L15.0866 15.0757L20.0157 10.2632Z" fill="url(#paint3_linear_4632_11283)"/>
<defs>
<linearGradient id="paint0_linear_4632_11283" x1="15.5532" y1="27.9397" x2="-3.37376" y2="6.09709" gradientUnits="userSpaceOnUse">
<stop stop-color="#00A0FF"/>
<stop offset="0.0066" stop-color="#00A1FF"/>
<stop offset="0.2601" stop-color="#00BEFF"/>
<stop offset="0.5122" stop-color="#00D2FF"/>
<stop offset="0.7604" stop-color="#00DFFF"/>
<stop offset="1" stop-color="#00E3FF"/>
</linearGradient>
<linearGradient id="paint1_linear_4632_11283" x1="27.8473" y1="15.0739" x2="-0.390296" y2="15.0739" gradientUnits="userSpaceOnUse">
<stop stop-color="#FFE000"/>
<stop offset="0.4087" stop-color="#FFBD00"/>
<stop offset="0.7754" stop-color="#FFA500"/>
<stop offset="1" stop-color="#FF9C00"/>
</linearGradient>
<linearGradient id="paint2_linear_4632_11283" x1="17.3354" y1="12.4594" x2="-8.5876" y2="-14.0917" gradientUnits="userSpaceOnUse">
<stop stop-color="#FF3A44"/>
<stop offset="1" stop-color="#C31162"/>
</linearGradient>
<linearGradient id="paint3_linear_4632_11283" x1="-3.12163" y1="37.6626" x2="8.45414" y2="25.8064" gradientUnits="userSpaceOnUse">
<stop stop-color="#32A071"/>
<stop offset="0.0685" stop-color="#2DA771"/>
<stop offset="0.4762" stop-color="#15CF74"/>
<stop offset="0.8009" stop-color="#06E775"/>
<stop offset="1" stop-color="#00F076"/>
</linearGradient>
</defs>
</svg>
